<svg xmlns="http://www.w3.org/2000/svg" width="359" height="73" viewBox="0 0 359 73" fill="none"><g clip-path="url(#clip0_3_21)"><path d="M80.9933 33.3334C82.9513 33.3334 84.5749 34.9093 84.5749 36.8673C84.5749 38.8253 82.999 40.4489 80.9933 40.4489C79.0353 40.4489 77.4116 38.873 77.4116 36.8673C77.4116 34.9571 79.0353 33.3334 80.9933 33.3334Z" fill="#003A70"></path><path d="M24.403 39.3027C27.9847 39.3027 30.85 42.2158 30.85 45.7497C30.85 49.3314 27.937 52.1967 24.403 52.1967C20.8214 52.1967 17.9561 49.2836 17.9561 45.7497C17.9561 42.2158 20.8214 39.3027 24.403 39.3027Z" fill="#682145"></path><path d="M99.1404 36.2942C97.469 33.3333 93.4575 32.9035 89.0162 36.7717C84.1929 40.9742 81.3753 51.1461 81.3753 51.1461L80.277 51.2894C80.277 51.2894 78.3668 45.6542 74.403 45.32C68.8634 44.8902 65.9503 52.2445 65.4728 56.5902C65.1385 59.7899 66.3324 64.0879 66.3324 64.0879C66.3324 64.0879 62.3687 69.1499 56.3037 65.5205C51.0029 62.3687 52.1012 54.2502 52.1012 54.2502C52.1012 54.2502 56.3515 43.9828 62.0344 36.4852C68.3859 28.0802 71.4422 30.8023 72.0153 31.0888C73.1136 31.6619 73.83 33.0945 74.4508 33.6199C74.7373 33.9064 75.2149 33.6199 75.2149 33.6199C75.2149 33.6199 76.4088 29.5129 75.0716 27.3161C73.2092 24.212 68.6724 23.4002 64.2789 27.937C57.8319 34.5272 53.3429 45.1289 53.3429 45.1289C53.3429 45.1289 52.8653 46.7049 52.4833 46.8004C51.958 46.9436 51.8624 46.2273 51.8624 46.2273L51.5759 10.4107C51.5759 10.4107 51.4327 5.15758 49.3314 2.57879C46.6093 -0.668588 39.637 -1.76696 35.2913 4.72778C32.808 8.40496 32.9035 13.467 32.9035 13.467C32.9035 13.467 35.1003 9.98089 37.3925 8.16618C39.9713 6.16045 43.6963 5.53963 46.5616 8.59598C48.3285 10.5062 48.8539 13.9446 48.8539 13.9446L48.9494 52.1967C48.9494 52.1967 47.8032 56.0172 39.3505 62.2254C32.3782 67.3352 17.8128 70.3916 9.50333 61.2225C2.19674 53.1519 2.86532 46.1795 2.86532 46.1795C2.86532 46.1795 2.14899 37.6791 9.74211 30.1337C15.7593 24.212 24.403 24.4986 24.403 24.4986C24.403 24.4986 33.1423 23.7345 40.0191 30.468C45.8453 36.1987 46.8004 45.9885 46.8004 45.9885C46.8004 45.9885 47.7077 36.3419 41.3085 29.6084C32.1394 19.9618 17.2875 20.3438 8.02291 29.1308C-2.34003 38.9685 -2.76983 55.2053 7.11556 64.852C19.3887 76.8386 33.0945 71.6332 37.106 69.4842C43.553 66.0458 49.3792 59.5511 49.3792 59.5511C49.3792 59.5511 50.7641 66.1413 53.6772 69.723C57.2111 74.0688 62.8462 72.4928 65.3773 70.8691C68.4814 68.8634 71.3944 64.8042 74.5941 63.085C75.979 62.3209 76.7431 61.8434 76.7431 61.8434L76.6953 56.1127C76.6953 56.1127 74.212 57.3543 71.9198 57.9752C70.0095 58.4527 66.7622 58.5005 67.2875 56.5425C68.5769 51.8625 73.1137 51.4804 73.1137 51.4804C73.1137 51.4804 74.4031 51.5759 75.5014 52.5788C76.6476 53.6294 77.6504 55.4441 78.5578 56.5902C79.3219 57.5454 80.086 57.9274 80.086 57.9274V61.5091H81.0411C81.0411 61.5091 81.2321 59.8376 81.7096 58.9303C81.9962 58.3572 82.6647 58.405 82.6647 58.405C82.6647 58.405 91.022 57.6886 96.0363 50.6686C99.809 45.32 101.003 39.4938 99.1404 36.2942ZM95.702 45.0334C93.8395 46.6571 88.6819 50.0477 86.5329 50.9551C84.957 51.6237 83.5721 51.5282 83.5721 51.5282C83.5721 51.5282 84.2884 48.6151 85.7211 46.3228C88.1089 42.5979 90.9264 40.3534 95.0334 41.1175C99.2837 41.9771 96.7526 44.1261 95.702 45.0334Z" fill="#003A70"></path></g><path d="M130.108 61.7585C128.072 61.7585 127.486 61.6549 126.589 61.6549C125.726 61.6549 124.794 61.724 123.932 61.7585V61.1719L124.587 61.1374C125.484 61.0683 125.657 60.9648 125.657 59.6881V48.4738C125.657 47.1971 125.45 47.0936 124.587 47.0246L123.932 46.99V46.3689C124.794 46.4035 125.726 46.507 126.589 46.4725C127.382 46.438 129.315 46.3689 130.108 46.3689C134.456 46.3689 136.94 49.785 136.94 53.9602C136.94 58.8255 133.662 61.7585 130.108 61.7585ZM129.315 47.0591C128.831 47.0591 127.9 47.1626 127.762 47.4386C127.693 47.5766 127.555 48.0597 127.555 48.4738V59.6881C127.555 60.1367 127.658 60.5508 127.762 60.7233C127.9 60.9993 128.831 61.1374 129.315 61.1374C133.145 61.1374 134.766 58.1354 134.766 53.9947C134.732 50.1301 133.386 47.0591 129.315 47.0591Z" fill="#043572"></path><path d="M151.26 61.6895C150.259 61.6895 149.155 61.7585 148.465 61.7585V61.1719L149.224 61.1374C150.087 61.1029 150.328 60.8613 149.914 59.6881L148.948 56.9277H143.6L142.634 59.6881C142.289 60.6888 142.427 61.1029 143.289 61.1374L144.048 61.1719V61.7585C143.634 61.724 142.703 61.6895 141.84 61.6895C140.977 61.6895 140.149 61.7585 139.632 61.7585V61.1719L140.322 61.1374C141.115 61.1029 141.253 60.6888 141.633 59.6881L145.67 48.4738C145.877 47.8527 146.291 46.7485 146.395 46.1619H147.188C147.326 46.645 147.706 47.8182 147.948 48.4738L152.019 59.6881C152.364 60.6543 152.468 61.0683 153.399 61.1374L154.09 61.1719V61.7585C153.503 61.7585 152.33 61.6895 151.26 61.6895ZM146.291 49.0949L143.807 56.2721H148.741L146.291 49.0949Z" fill="#043572"></path><path d="M172.274 61.6895C171.411 61.6895 170.48 61.7585 169.617 61.7585V61.1719L170.273 61.1374C171.17 61.0683 171.308 60.9303 171.273 59.6881L170.825 48.1632L166.753 58.2044C166.477 58.929 165.856 60.3782 165.649 61.1029H165.097C164.924 60.4473 164.2 58.998 163.889 58.2044L159.576 48.1632L159.058 59.6191C158.989 60.8958 159.196 61.0683 160.094 61.1374L160.749 61.1719V61.7585C159.887 61.724 159.438 61.6895 158.541 61.6895C157.678 61.6895 157.23 61.7585 156.332 61.7585V61.1719L156.988 61.1374C157.885 61.0683 158.058 60.8613 158.127 59.6191L158.679 48.4738C158.748 47.1971 158.541 47.0936 157.644 47.0246L157.023 46.99V46.3689C157.471 46.4035 158.23 46.4725 158.92 46.4725C159.576 46.4725 160.37 46.3689 160.818 46.3689C160.956 46.99 161.681 48.4738 162.026 49.2674L165.752 58.2734L169.376 49.2674C169.686 48.4393 170.273 47.0936 170.48 46.3689C170.859 46.4035 171.618 46.4725 172.378 46.4725C173.137 46.4725 173.689 46.3689 174.275 46.3689V46.99L173.62 47.0246C172.723 47.0936 172.55 47.1971 172.619 48.4738L173.102 59.6881C173.171 60.9648 173.413 61.0683 174.31 61.1374L174.931 61.1719V61.7585C174.103 61.7585 173.171 61.6895 172.274 61.6895Z" fill="#043572"></path><path d="M189.009 61.6895C188.009 61.6895 186.904 61.7585 186.214 61.7585V61.1719L186.973 61.1374C187.836 61.1029 188.078 60.8613 187.664 59.6881L186.697 56.9277H181.315L180.348 59.6881C180.003 60.6888 180.141 61.1029 181.004 61.1374L181.763 61.1719V61.7585C181.349 61.724 180.417 61.6895 179.555 61.6895C178.692 61.6895 177.864 61.7585 177.346 61.7585V61.1719L178.036 61.1374C178.83 61.1029 178.968 60.6888 179.348 59.6881L183.385 48.4738C183.592 47.8527 184.006 46.7485 184.109 46.1619H184.903C185.041 46.645 185.421 47.8182 185.662 48.4738L189.734 59.6881C190.079 60.6543 190.182 61.0683 191.114 61.1374L191.804 61.1719V61.7585C191.287 61.7585 190.079 61.6895 189.009 61.6895ZM184.04 49.0949L181.556 56.2721H186.49L184.04 49.0949Z" fill="#043572"></path><path d="M208.539 47.0246C207.642 47.0936 207.47 47.2316 207.47 48.5083V59.6881C207.47 60.5163 207.47 61.3789 207.504 62H206.676C206.228 61.2409 205.71 60.3782 205.192 59.6881L197.118 48.5773V59.6536C197.118 60.8958 197.325 61.1029 198.188 61.1719L198.843 61.2064V61.793C197.981 61.7585 197.532 61.724 196.67 61.724C195.807 61.724 195.358 61.793 194.496 61.793V61.2064L195.151 61.1719C196.048 61.1029 196.221 60.9303 196.221 59.6536V48.5083C196.221 47.2316 196.014 47.1281 195.151 47.0591L194.496 47.0246V46.4035C195.358 46.438 195.427 46.507 196.29 46.507C197.153 46.507 197.187 46.4035 198.084 46.4035C198.395 46.852 199.188 48.0252 199.534 48.5083L206.607 58.2734V48.5773C206.607 47.3006 206.4 47.1626 205.503 47.0936L204.882 47.0591V46.438C205.745 46.4725 206.193 46.5415 207.056 46.5415C207.918 46.5415 208.332 46.438 209.195 46.438V47.0591L208.539 47.0246Z" fill="#043572"></path><path d="M225.344 62C223.549 62 221.997 61.5859 221.203 61.3099L220.996 57.6868H221.652C221.652 58.86 222.238 60.1712 222.859 60.5853C223.48 60.9648 224.24 61.3099 225.309 61.3099C227.414 61.3099 228.725 60.1712 228.725 57.8248C228.725 56.1685 227.621 55.4439 225.447 54.5813C222.204 53.2701 220.927 52.718 220.927 50.0956C220.927 47.9562 223.308 46.1964 225.93 46.1964C227.725 46.1964 229.139 46.576 229.933 46.852L230.106 50.1991H229.484C229.484 49.0259 228.76 47.8872 228.139 47.4731C227.518 47.0936 227 46.783 225.93 46.783C224.067 46.783 223.032 48.0597 223.032 49.854C223.032 51.7173 224.412 52.0969 226.689 53.063C228.898 53.9602 230.899 54.5813 230.899 57.6178C230.934 60.4127 228.173 62 225.344 62Z" fill="#043572"></path><path d="M246.151 61.7585C244.046 61.6894 241.561 61.6549 240.664 61.6549C239.802 61.6549 237.145 61.6894 235.04 61.7585V61.1719L235.695 61.1374C236.593 61.0683 236.765 60.9648 236.765 59.6881V48.4738C236.765 47.1971 236.558 47.0936 235.695 47.0246L235.04 46.99V46.3689C237.145 46.438 239.664 46.4725 240.526 46.4725C241.389 46.4725 243.494 46.438 245.599 46.3689L245.84 50.0265H245.184C245.184 48.7498 244.563 47.8872 243.977 47.5421C243.528 47.3006 242.666 47.0936 241.872 47.0936C239.871 47.0936 239.111 47.1281 238.87 47.5421C238.766 47.6802 238.663 48.0942 238.663 48.5083V53.4426H241.216C241.734 53.4426 242.251 53.3046 242.528 53.1321C242.907 52.856 243.287 52.1659 243.287 51.1307H243.942L243.839 53.7532L243.942 56.3756H243.287C243.287 55.3404 242.907 54.6503 242.528 54.3743C242.251 54.1672 241.734 54.0637 241.216 54.0637H238.663V59.6881C238.663 60.1367 238.766 60.5163 238.87 60.6543C239.077 61.0684 240.25 61.0338 242.251 61.0338C243.045 61.0338 243.942 60.8613 244.391 60.6198C245.012 60.3092 245.702 59.2396 245.702 57.9628H246.323L246.151 61.7585Z" fill="#043572"></path><path d="M257.503 62C253.604 62 250.671 58.9635 250.671 53.9947C250.671 49.6815 253.569 46.1964 257.607 46.1964C259.401 46.1964 260.988 46.576 261.782 46.852L261.954 50.1991H261.333C261.299 48.9224 260.47 47.8872 259.884 47.5076C259.263 47.1281 258.676 46.852 257.607 46.852C254.156 46.852 252.879 50.7512 252.879 53.9947C252.879 58.1354 254.708 61.1374 257.952 61.1374C259.401 61.1374 261.092 60.4473 261.989 59.4466L262.472 59.8952C261.402 60.9648 260.298 62 257.503 62Z" fill="#043572"></path><path d="M279.656 47.0246C278.758 47.0936 278.586 47.2316 278.586 48.4738V55.4784C278.586 59.2741 277.171 62 273.1 62C269.269 62 267.475 59.7916 267.475 55.72V48.4738C267.475 47.1971 267.268 47.0936 266.371 47.0246L265.75 46.99V46.3689C266.612 46.4035 267.579 46.4725 268.441 46.4725C269.304 46.4725 270.27 46.3689 271.133 46.3689V46.99L270.477 47.0246C269.58 47.0936 269.407 47.1971 269.407 48.4738V55.72C269.407 59.205 270.546 61.2064 273.376 61.2064C276.688 61.2064 277.723 58.8255 277.723 55.4784V48.4738C277.723 47.1971 277.516 47.0936 276.619 47.0246L275.964 46.99V46.3689C276.826 46.4035 277.275 46.4725 278.172 46.4725C279.035 46.4725 279.483 46.3689 280.346 46.3689V46.99L279.656 47.0246Z" fill="#043572"></path><path d="M295.494 61.6895C294.666 61.6895 294.182 61.7585 293.803 61.7585C293.596 61.4134 292.561 60.1367 292.216 59.6881L289.248 55.72C288.282 54.4088 287.937 54.1672 287.35 54.1672V59.6881C287.35 60.9648 287.557 61.0683 288.455 61.1374L289.076 61.1719V61.7585C288.213 61.724 287.281 61.6895 286.419 61.6895C285.556 61.6895 284.624 61.7585 283.762 61.7585V61.1719L284.417 61.1374C285.315 61.0683 285.487 60.9648 285.487 59.6881V48.4738C285.487 47.1971 285.28 47.0936 284.417 47.0246L283.762 46.99V46.3689C284.624 46.4035 285.556 46.4725 286.419 46.4725C287.281 46.4725 288.282 46.3689 289.179 46.3689C292.423 46.3689 294.873 47.5766 294.873 50.1646C294.873 52.8905 291.871 53.9947 289.973 54.1327C290.387 54.4778 290.456 54.5123 291.319 55.6165L294.493 59.6881C295.528 61.0338 295.942 61.0683 296.77 61.1374L297.288 61.1719V61.7585C296.805 61.7585 296.322 61.6895 295.494 61.6895ZM289.179 47.0246C288.42 47.0246 287.73 47.1971 287.557 47.4731C287.488 47.6457 287.35 48.0252 287.35 48.4738V53.5461C287.661 53.6151 288.213 53.6151 288.627 53.6151C291.353 53.6151 292.699 52.4764 292.699 50.1991C292.733 47.8527 291.008 47.0246 289.179 47.0246Z" fill="#043572"></path><path d="M302.291 61.6895C301.429 61.6895 300.497 61.7585 299.6 61.7585V61.1719L300.221 61.1374C301.118 61.0683 301.325 60.9648 301.325 59.6881V48.4738C301.325 47.1971 301.118 47.0936 300.221 47.0246L299.6 46.99V46.3689C300.463 46.4035 301.394 46.4725 302.291 46.4725C303.188 46.4725 304.086 46.3689 304.948 46.3689V46.99L304.293 47.0246C303.396 47.0936 303.223 47.1971 303.223 48.4738V59.6881C303.223 60.9648 303.43 61.0683 304.293 61.1374L304.948 61.1719V61.7585C304.12 61.7585 303.188 61.6895 302.291 61.6895Z" fill="#043572"></path><path d="M319.648 50.1301C319.648 48.8534 319.234 47.9217 318.82 47.5766C318.509 47.3351 317.922 47.1281 317.37 47.1281C315.99 47.1281 315.369 47.0936 315.196 47.5076C315.127 47.6457 315.093 48.0597 315.093 48.4738V59.6881C315.093 60.9648 315.3 61.1029 316.197 61.1374L317.094 61.1719V61.7585C316.232 61.724 315.024 61.6549 314.127 61.6549C313.23 61.6549 312.056 61.724 311.194 61.7585V61.1719L312.091 61.1374C312.988 61.1029 313.161 60.9648 313.161 59.6881V48.4738C313.161 48.0252 313.126 47.6457 313.092 47.5076C312.954 47.1281 312.298 47.1281 310.883 47.1281C310.331 47.1281 309.745 47.3351 309.468 47.5766C309.054 47.8872 308.606 48.8188 308.606 50.1301H307.985L308.157 46.3689C308.882 46.4035 310.918 46.4725 314.092 46.4725C317.301 46.4725 319.234 46.4035 320.062 46.3689L320.269 50.1301H319.648Z" fill="#043572"></path><path d="M325.997 61.6895C325.134 61.6895 324.202 61.7585 323.34 61.7585V61.1719L323.961 61.1374C324.858 61.0683 325.065 60.9648 325.065 59.6881V48.4738C325.065 47.1971 324.858 47.0936 323.961 47.0246L323.34 46.99V46.3689C324.202 46.4035 325.134 46.4725 325.997 46.4725C326.859 46.4725 327.791 46.3689 328.688 46.3689V46.99L328.033 47.0246C327.135 47.0936 326.928 47.1971 326.928 48.4738V59.6881C326.928 60.9648 327.135 61.0683 328.033 61.1374L328.688 61.1719V61.7585C327.825 61.7585 326.859 61.6895 325.997 61.6895Z" fill="#043572"></path><path d="M343.422 61.7585C341.317 61.6894 338.833 61.6549 337.936 61.6549C337.073 61.6549 334.416 61.6894 332.311 61.7585V61.1719L332.967 61.1374C333.864 61.0683 334.036 60.9648 334.036 59.6881V48.4738C334.036 47.1971 333.829 47.0936 332.967 47.0246L332.311 46.99V46.3689C334.416 46.438 336.935 46.4725 337.798 46.4725C338.66 46.4725 340.765 46.438 342.87 46.3689L343.077 50.0265H342.421C342.421 48.7498 341.8 47.8872 341.214 47.5421C340.765 47.3006 339.902 47.0936 339.109 47.0936C337.107 47.0936 336.348 47.1281 336.107 47.5421C336.003 47.6802 335.9 48.0942 335.9 48.5083V53.4426H338.453C338.936 53.4426 339.488 53.3046 339.764 53.1321C340.144 52.856 340.524 52.1659 340.524 51.1307H341.179L341.076 53.7532L341.179 56.3756H340.524C340.524 55.3404 340.144 54.6503 339.764 54.3743C339.488 54.1672 338.971 54.0637 338.453 54.0637H335.9V59.6881C335.9 60.1367 336.003 60.5163 336.107 60.6543C336.314 61.0684 337.487 61.0338 339.488 61.0338C340.282 61.0338 341.179 60.8613 341.628 60.6198C342.249 60.3092 342.939 59.2396 342.939 57.9628H343.56L343.422 61.7585Z" fill="#043572"></path><path d="M352.255 62C350.461 62 348.908 61.5859 348.115 61.3099L347.908 57.6868H348.563C348.563 58.86 349.15 60.1712 349.771 60.5853C350.392 60.9648 351.151 61.3099 352.221 61.3099C354.291 61.3099 355.637 60.1712 355.637 57.8248C355.637 56.1685 354.533 55.4439 352.359 54.5813C349.115 53.2701 347.839 52.718 347.839 50.0956C347.839 47.9562 350.22 46.1964 352.842 46.1964C354.636 46.1964 356.051 46.576 356.845 46.852L357.017 50.1991H356.396C356.396 49.0259 355.672 47.8872 355.05 47.4731C354.429 47.0936 353.912 46.783 352.877 46.783C351.013 46.783 349.978 48.0597 349.978 49.854C349.978 51.7173 351.358 52.0969 353.636 53.063C355.844 53.9602 357.811 54.5813 357.811 57.6178C357.811 60.4127 355.085 62 352.255 62Z" fill="#043572"></path><path d="M356.879 31.221C356.638 31.29 356.189 31.4625 355.982 31.4625H347.287C348.943 30.8069 350.427 29.1851 351.979 28.564C352.359 28.357 353.153 28.288 353.36 28.288C353.498 28.288 354.084 28.3225 354.464 28.495C354.671 28.564 355.085 28.7711 355.223 28.8746C355.741 29.2196 356.293 29.9098 356.638 30.3928C356.672 30.4618 356.845 30.5309 356.845 30.7379V31.221H356.879ZM358.743 29.7372C358.743 29.4957 358.639 29.1161 358.605 28.9091C358.259 27.8739 356.603 26.5627 355.81 26.2177C355.465 26.0451 354.843 25.8726 354.636 25.8726C354.429 25.8726 353.36 26.1486 352.877 26.3902C351.703 26.9423 350.737 27.6669 349.909 28.2535C348.391 29.2887 344.94 30.6689 343.491 31.4625H342.801V33.7054H356.362C356.569 33.7054 357.121 33.2568 357.259 33.0843C357.707 32.1871 358.225 31.221 358.639 30.3238C358.708 30.1858 358.743 29.9098 358.743 29.7372ZM349.599 21.6284L347.011 20.0411C346.7 20.6967 346.252 21.3869 345.975 21.9735L348.494 23.4917L349.599 21.6284ZM344.285 31.4625C343.56 31.359 342.559 31.428 341.904 31.428C341.628 31.428 341.386 31.29 341.317 31.1175C342.214 30.0478 342.111 27.8394 342.249 26.9768C341.593 27.5979 340.765 28.4605 340.179 29.1161C340.075 29.2196 340.524 31.428 339.316 31.428H334.485V33.6709H338.902C339.143 33.6709 339.626 33.2223 339.937 32.9117C340.109 33.1533 340.317 33.4293 340.489 33.6709C341.662 33.6709 342.835 33.6364 343.94 33.6364C343.802 33.6364 343.698 33.6709 343.629 33.6709V31.428L344.285 31.4625ZM335.624 31.428H331.276V33.6709H335.624V31.428ZM328.964 31.3245C328.826 31.428 328.516 31.5315 328.309 31.5315C328.136 31.5315 327.618 31.359 327.239 31.1865C326.583 30.9104 325.893 30.4273 325.272 30.0133C325.479 29.6682 326.204 29.0816 326.549 29.0126C326.859 28.9091 327.377 28.8056 327.549 28.8056C327.756 28.8056 327.998 28.8746 328.136 29.0126C328.688 29.5647 328.688 30.5654 328.964 31.3245ZM332.208 33.6709V31.428H331.035C330.517 30.7724 330.172 30.2203 330.068 29.9098C329.792 29.2887 329.516 28.5985 329.378 27.9774C329.309 27.6669 329.378 27.0458 329.309 26.7352C329.275 26.5282 328.964 26.3902 328.757 26.3902C328.55 26.3902 327.756 26.6317 327.446 26.7352C326.618 27.0113 324.927 28.0465 324.34 28.7021C323.65 29.4267 323.788 30.4964 323.133 31.1865C323.029 31.29 322.788 31.428 322.615 31.428H318.474V33.6709H322.684C322.891 33.6709 322.96 33.5328 322.995 33.4293C323.236 33.1533 323.409 32.1181 323.961 32.1181L329.689 35.1201C329.93 34.6715 330.137 34.1194 330.379 33.6364H332.208V33.6709ZM319.303 31.428H314.955V33.6709H319.303V31.428ZM315.749 31.428H311.401V33.6709H315.749V31.428ZM312.16 31.428H307.812V33.6709H312.16V31.428ZM308.571 33.6709V31.428H308.054C307.191 31.428 305.914 31.359 305.742 30.3238C304.81 24.2163 304.914 21.6629 304.258 15.0723C303.741 15.6589 303.085 16.3835 302.671 17.0737C302.602 17.2117 302.636 17.3842 302.636 17.5912L303.913 33.6709H308.571ZM299.841 31.704C299.841 29.8062 299.117 26.9768 297.806 25.5965L296.46 28.1845C297.15 29.4612 298.427 31.9456 298.427 33.4983C298.427 36.0863 292.63 36.9489 291.457 36.9489C289.317 36.9489 286.729 35.9137 286.729 32.9117C286.729 31.3245 287.868 29.8062 288.248 28.081H287.937C286.66 29.1161 285.418 33.1533 285.418 34.8096C285.418 38.1221 288.109 39.3298 290.663 39.3298C294.907 39.3298 299.841 37.4665 299.841 31.704ZM293.527 22.3875C292.595 21.8699 291.56 21.3179 290.663 20.9728L289.628 22.9051L292.319 24.4579C292.768 23.7678 293.147 22.9741 293.527 22.3875Z" fill="#043572"></path><path d="M278.793 19.5581C278.172 19.2475 277.516 18.8679 276.964 18.5919C276.792 18.5229 276.688 18.3159 276.688 18.1433C276.688 17.9363 276.826 17.5567 276.757 17.2462H276.378C275.825 18.1088 275.342 18.937 274.928 19.7306C274.859 19.9031 274.825 20.0756 274.825 20.2827C274.825 20.4897 274.825 20.5932 274.928 20.6967C275.066 20.9383 275.377 21.0763 275.446 21.2488C275.756 22.9051 276.033 25.424 276.205 26.7352C276.309 27.3563 276.412 28.0465 276.447 28.5295C276.55 29.2196 276.688 30.5654 276.688 30.7379C276.688 30.9794 276.688 31.152 276.654 31.3935C276.619 31.4625 276.585 31.6005 276.585 31.6005C277.62 31.5315 260.229 31.6005 258.78 31.6005V33.8434H277.033C277.758 32.8427 277.654 31.8076 277.896 30.7724C277.93 30.4618 277.999 29.7372 277.999 29.5647L277.309 22.1115L277.482 22.215C277.896 21.4214 278.413 20.3862 278.793 19.5581ZM272.306 33.7744V31.5315H257.296C257.089 31.5315 256.847 31.3245 256.64 31.1175C256.537 30.9449 256.537 30.8069 256.537 30.7379C256.295 29.0471 256.192 27.1838 256.088 25.7001C256.054 25.1135 255.985 24.3889 255.95 23.8368C255.916 23.2502 255.847 22.5255 255.812 21.9735C255.778 21.0418 255.674 19.8341 255.571 19.144C255.536 18.5229 255.467 17.3152 255.329 16.4871C254.881 17.1082 254.294 17.8328 253.845 18.4539C253.742 18.5574 253.638 18.7299 253.638 18.937L254.018 24.3543C254.018 25.0445 252.776 27.5979 250.671 29.6337L250.636 29.0471C250.74 27.6324 250.395 26.2867 249.67 24.6649C249.429 24.2163 249.118 23.5607 248.808 23.0431C248.014 21.8354 246.358 20.1102 245.012 19.006C244.598 18.6954 243.666 18.0398 243.494 18.0743H243.183C242.942 19.075 242.39 20.8693 242.39 21.0418C242.39 21.1798 242.424 21.5939 242.493 21.6629C243.459 22.8361 244.77 23.6297 245.702 23.9403C245.875 23.6987 245.944 23.3537 246.151 23.2502C247.841 24.7684 249.153 26.8733 249.636 28.7021C249.774 29.2541 249.981 30.0133 249.981 30.1858C249.981 30.3928 249.739 30.4273 249.705 30.4964C249.463 30.8069 248.773 31.359 248.428 31.566C245.909 33.4638 244.736 33.8089 241.699 35.6722C241.63 35.7412 241.561 35.8792 241.561 35.9482L242.493 36.0173C245.495 35.4652 248.946 35.0511 251.534 31.6695C252.051 31.0139 252.603 30.1168 252.879 29.5647C253.293 28.7021 253.535 27.8739 254.19 27.0113C254.881 28.8056 254.743 31.497 254.846 33.7399H272.306V33.7744ZM244.701 12.7605C243.425 12.6914 242.113 12.5879 240.906 12.3809C240.63 12.3464 240.457 12.2429 240.216 12.0358V11.8978C240.216 11.2422 241.492 10.9662 241.906 10.9662C242.113 10.9662 242.321 11.0007 242.562 11.1732C242.735 11.2422 242.907 11.4492 242.976 11.4492C243.149 11.1387 243.321 10.6901 243.321 10.3796C243.252 10.3106 243.114 10.1725 243.045 10.138C242.907 10 242.528 10 242.321 10C241.044 10 239.319 11.2767 239.319 12.6914C239.319 12.8985 239.388 13.0365 239.422 13.071C239.767 13.4851 240.802 13.4851 241.32 13.6921C240.699 14.0717 239.595 14.8998 239.595 15.0378V15.3139C240.94 14.5547 242.804 13.6576 244.046 13.6921C244.253 13.4506 244.529 13.0365 244.701 12.7605ZM236.834 30.1858C236.282 30.5999 236.04 30.6689 235.488 30.6689C235.005 30.6689 233.522 30.3928 233.522 29.4957C233.522 28.9781 234.695 27.8049 235.212 27.8049C236.282 27.8049 236.8 29.9098 236.834 30.1858ZM238.559 30.7034C238.559 30.4964 238.421 29.3232 238.283 28.5985C238.214 28.1845 237.938 27.5979 237.835 27.2873C237.662 26.8733 236.627 25.079 235.937 25.079C234.695 25.079 232.486 28.9436 232.486 30.1513C232.486 31.1865 232.935 33.1188 234.729 33.1188C236.006 33.1188 236.662 32.4632 237.352 31.0139C237.421 31.0829 237.386 31.1865 237.455 31.1865C237.455 31.497 237.524 32.0146 237.524 32.1526C237.524 34.3265 235.35 36.1898 232.9 37.8461C232.245 38.2256 231.072 38.8122 230.347 38.8122C230.14 38.8122 227.656 38.2601 227.449 38.2601C227.311 38.2601 227.104 38.4672 227.069 38.6052C227.794 39.1918 231.727 39.9509 231.727 39.9509C232.279 40.0199 232.659 40.0199 232.797 40.0199C235.419 40.0199 237.317 36.6039 238.042 34.2575C238.352 33.2568 238.387 32.1181 238.456 31.497C238.525 31.221 238.559 30.8759 238.559 30.7034ZM228.208 31.1865C228.208 30.9794 228.139 29.9788 228.104 29.6337C227.932 28.1155 226.724 26.0796 224.964 25.0445C224.723 25.9071 224.516 26.8733 224.343 27.7014C224.964 28.15 225.758 28.7021 226.137 29.0471C226.586 29.4957 227.207 30.3238 227.242 30.7034C227.276 30.7724 227.276 30.8414 227.276 31.0484C227.276 31.2555 227.069 31.9111 226.931 32.2561C226.413 33.5328 224.378 35.6032 223.17 36.3968C222.583 36.7764 221.859 37.1214 221.238 37.3285C221.031 37.363 220.823 37.3975 220.651 37.3975C220.444 37.3975 220.133 37.363 220.03 37.3285C219.098 37.0524 217.442 36.3278 217.269 36.3278C217.062 36.3278 217.131 36.3623 217.028 36.4313V36.7764C218.305 37.9496 220.202 38.3636 221.272 38.7087C221.721 38.8122 222.48 38.9502 222.618 38.9502C222.756 38.9502 223.584 38.7432 223.86 38.6397C225.792 37.708 227.138 35.2926 227.725 33.7399C227.828 33.4293 228.001 32.9463 228.035 32.6702C228.173 32.1871 228.208 31.3935 228.208 31.1865ZM215.682 29.8062L214.889 15.6589C214.371 16.4871 213.163 18.2814 213.163 19.42L214.578 33.8089C215.199 32.4632 215.682 30.8759 215.682 29.8062ZM207.918 29.1851C207.918 29.3577 207.297 29.7717 207.021 29.9098C206.952 29.9443 206.849 29.9443 206.78 29.9788C206.607 30.0133 206.366 30.0133 206.193 30.0133C205.745 30.0133 204.33 29.8062 204.33 29.0126C204.33 28.1845 205.607 27.2183 206.228 27.2183C206.814 27.2528 207.918 28.9436 207.918 29.1851ZM209.989 31.6695C209.989 31.4625 209.989 30.7034 209.954 30.3928C209.954 30.0478 209.816 29.4267 209.713 29.1506C209.609 28.633 209.437 28.081 209.23 27.6324C208.885 26.9078 208.539 25.7001 207.573 25.0445C207.332 24.9064 206.918 24.7684 206.78 24.7684C205.261 24.7684 203.26 28.2535 203.26 29.8752C203.26 31.2555 203.536 32.4977 205.434 32.4977C205.641 32.4977 206.435 32.4287 206.711 32.3597C207.47 32.0491 208.091 31.221 208.505 30.5654C208.678 31.0139 208.816 31.4625 208.885 31.9111C208.954 32.2561 208.919 32.6357 208.919 32.8082C208.919 33.0153 208.919 33.7399 208.816 34.0849C208.781 34.1539 208.712 34.3265 208.712 34.3955C207.746 35.4997 205.779 36.0518 204.951 36.2933C204.192 36.5003 203.295 36.6384 202.536 36.7074C202.156 36.7419 201.397 36.7419 201.259 36.7419C199.119 36.7419 197.084 36.6039 197.084 33.5674C197.084 31.359 198.153 30.5999 198.153 29.5992C198.153 29.3922 198.084 29.2196 197.912 29.1851C197.222 29.7027 195.634 33.3603 195.634 35.2581C195.634 38.6052 198.498 39.2263 200.879 39.2263C201.121 39.2263 202.57 39.1918 203.295 39.0537C205.365 38.7432 208.539 37.2595 209.471 34.8096C209.609 34.3955 209.782 33.8434 209.851 33.4638C210.023 32.9463 209.989 31.8421 209.989 31.6695ZM208.747 20.3517C207.884 19.7996 207.021 19.213 206.297 18.8334C206.021 19.351 205.848 19.7651 205.537 20.2827L202.915 18.5574C202.466 19.2475 202.018 20.0411 201.707 20.6622L204.468 22.1805C204.778 21.7319 205.054 21.1798 205.33 20.9383L207.711 22.3185L208.747 20.3517ZM187.146 29.8062L186.318 15.6589C185.8 16.4871 184.593 18.2814 184.593 19.42L186.007 33.8089C186.663 32.4632 187.146 30.8759 187.146 29.8062ZM181.004 33.0843C181.004 31.3935 177.691 30.7724 177.415 29.4267C177.277 28.7366 177.208 27.5979 177.208 27.4253V25.286C177.208 25.148 177.07 23.2502 177.105 22.353H177.208L178.52 19.7306C177.829 19.351 177.036 18.9715 176.346 18.4884C176.311 17.9708 176.691 17.4187 176.242 17.2807C175.69 17.6603 174.517 20.0411 174.517 20.3517C174.517 20.5932 174.586 20.7313 174.62 20.7658C174.758 20.9728 175.035 21.0763 175.173 21.2143C175.38 22.9051 175.552 25.148 175.69 26.3902C175.794 27.2183 175.828 27.6669 175.828 28.1845C175.897 29.0126 176.07 30.1858 176.07 30.3583C176.07 31.152 173.861 31.566 173.551 31.566H170.48V33.8089H173.447C173.654 33.8089 176.553 32.8082 176.725 32.8082C177.622 32.8082 179.313 34.637 179.934 35.4307C180.348 34.568 181.004 33.7399 181.004 33.0843ZM171.584 33.7744V31.5315H171.066C170.204 31.5315 164.821 31.4625 164.648 30.4273C163.717 24.3198 163.82 21.7664 163.165 15.1758C162.647 15.7624 161.991 16.4871 161.577 17.1772C161.508 17.3497 161.543 17.4877 161.543 17.6948L162.82 33.7744H171.584ZM158.506 19.5581C157.885 19.2475 157.23 18.8679 156.678 18.5919C156.539 18.5229 156.401 18.3159 156.401 18.1433C156.401 17.9363 156.539 17.5567 156.47 17.2462H156.125C155.573 18.1088 155.09 18.937 154.676 19.7306C154.607 19.9031 154.573 20.0756 154.573 20.2827C154.573 20.4897 154.573 20.5932 154.676 20.6967C154.849 20.9383 155.125 21.0763 155.194 21.2488C155.504 22.9051 155.78 25.424 155.953 26.7352C156.056 27.3563 156.16 28.0465 156.194 28.5295C156.298 29.2196 156.436 30.5654 156.436 30.7379C156.436 30.9794 156.436 31.152 156.401 31.3935C156.367 31.4625 156.332 31.6005 156.332 31.6005C157.368 31.5315 152.295 31.6005 150.881 31.6005V33.8434H156.816C157.54 32.8427 157.437 31.8076 157.678 30.7724C157.713 30.4618 157.782 29.7372 157.782 29.5647L157.092 22.1115L157.23 22.215C157.609 21.4214 158.127 20.3862 158.506 19.5581ZM151.26 37.6045C150.432 37.0869 149.362 36.3623 148.741 36.1553C148.431 36.6039 148.189 37.1214 147.982 37.4665C147.119 36.9144 146.188 36.2933 145.36 35.9137C144.911 36.5348 144.566 37.225 144.255 37.8461L146.912 39.3298C147.154 38.9502 147.465 38.4672 147.672 38.0876C148.534 38.4672 149.362 39.0192 150.225 39.4678C150.605 38.8812 150.984 38.2256 151.26 37.6045ZM151.743 31.5315H150.708C150.674 30.9104 150.605 30.2893 150.605 30.1168V27.9429C150.605 27.7359 150.397 26.5282 150.363 25.9071C150.294 25.9071 148.672 27.9429 148.672 28.426C148.672 28.6676 149.19 31.221 149.017 31.566H132.696V33.8089H148.12C148.431 33.3603 148.879 32.6357 149.121 32.4977C149.431 32.9463 149.673 33.4293 149.88 33.8089H151.743V31.5315ZM129.487 29.5992C129.107 29.5302 128.521 29.5992 128.314 29.5992C128.176 29.5992 127.727 29.5647 127.417 29.4957C126.865 29.4267 126.313 29.2196 125.795 29.0471C125.484 28.9781 124.898 28.5985 124.691 28.357C125.622 27.6669 126.899 27.5979 127.865 26.9768C128.141 26.8733 128.486 26.1141 128.831 25.6311L129.487 29.5992ZM133.352 33.7744V31.5315H132.765C132.248 31.5315 131.73 31.5315 131.316 31.0484C131.212 30.9449 131.212 30.7724 131.212 30.7034C130.833 27.5979 130.557 24.4924 130.143 21.3869C129.591 22.008 128.9 22.5946 128.59 23.3882C128.417 23.7678 128.693 24.3543 128.659 24.6994C127.555 25.286 126.036 25.424 125.139 26.2177C123.69 27.4944 123.242 29.1851 123 30.4618C123.863 31.1175 124.691 31.3245 125.277 31.428C126.106 31.6695 127.796 32.0836 127.934 32.0836C128.141 32.0836 128.279 31.9801 128.348 31.8421C128.59 31.497 128.866 30.5309 129.522 30.2893C129.97 31.1865 129.453 31.497 129.97 32.6357C130.143 33.0498 130.522 33.4638 130.833 33.6019C130.936 33.6364 131.212 33.7399 131.385 33.7399H133.352V33.7744ZM129.97 19.006L127.382 17.4187C127.072 17.8673 126.727 18.3504 126.52 18.7299C125.829 18.3849 124.76 17.6948 124.035 17.3497L123 19.213C123.863 19.6616 124.829 20.2137 125.657 20.6967C125.898 20.2827 126.036 19.7306 126.52 19.3855C127.279 19.8341 128.141 20.3862 128.9 20.7658L129.97 19.006Z" fill="#043572"></path><defs><clipPath id="clip0_3_21"><rect width="100" height="72.5406" fill="white"></rect></clipPath></defs></svg>